<svg enable-background="new 0 0 241.4 103" height="103" viewBox="0 0 241.4 103" width="241.4" xmlns="http://www.w3.org/2000/svg" xmlns:xlink="http://www.w3.org/1999/xlink"><clipPath id="a"><path d="m0 0h241.4v103h-241.4z"/></clipPath><clipPath id="b"><path d="m0 0h241.4v103h-241.4z"/></clipPath><clipPath id="c"><path d="m0 0h241.4v103h-241.4z"/></clipPath><path clip-path="url(#a)" d="m239.9 99.4c.4-.1.6-.3.9-.5.2-.2.4-.5.5-.8s.1-.7.1-1v-6.1c0-.4 0-.7-.1-1s-.2-.6-.5-.8c-.2-.2-.5-.4-.9-.5s-.8-.2-1.4-.2c-.5 0-1 .1-1.4.2s-.6.3-.9.5c-.2.2-.4.5-.5.8s-.1.6-.1 1v6c0 .4 0 .7.1 1s.2.6.5.8c.2.2.5.4.9.5s.8.2 1.4.2c.6.1 1 0 1.4-.1m-1.7-1.8c-.1-.1-.2-.2-.2-.5v-6.2c0-.2.1-.4.2-.5s.2-.1.3-.1.2 0 .4.1c.1.1.2.2.2.5v6.2c0 .2-.1.4-.2.5s-.2.1-.4.1c-.1 0-.2-.1-.3-.1m-6.1-10.1h2.3v-2.4h-2.3zm0 11.8h2.3v-10.7h-2.3zm-3.4-3.9v1.6c0 .2-.1.4-.2.5s-.2.1-.4.1c-.1 0-.2 0-.3-.1s-.2-.2-.2-.5v-6.2c0-.2.1-.4.2-.5s.2-.1.3-.1.2 0 .4.1c.1.1.2.2.2.5v1.4h2.2v-1.4c0-.4 0-.7-.1-1s-.2-.6-.4-.8-.5-.4-.8-.5-.8-.2-1.3-.2-1 .1-1.4.2-.6.3-.9.5c-.2.2-.4.5-.5.8s-.1.6-.1 1v6.2c0 .4 0 .7.1 1s.2.6.5.8c.2.2.5.4.9.5s.8.2 1.4.2 1-.1 1.4-.2.6-.3.8-.5.3-.5.4-.8.1-.7.1-1v-1.6zm-7.9 0c0-.4.1-.7.3-.8.2-.2.4-.4.8-.6v3c0 .2 0 .4-.1.5s-.2.2-.5.2c-.2 0-.3-.1-.4-.2s-.1-.3-.1-.4zm1-3.1c-.6.2-1.1.4-1.5.6s-.8.4-1 .7c-.3.2-.5.5-.6.8s-.2.6-.2 1v1.6c0 .9.2 1.5.5 1.9.4.4.9.6 1.7.6.5 0 .8-.1 1-.2s.5-.3.7-.6l.4.5h1.3v-8.4c0-.4 0-.7-.1-1s-.2-.6-.5-.8c-.2-.2-.5-.4-.9-.5s-.8-.2-1.3-.2c-1 0-1.7.2-2.1.7s-.6 1-.6 1.7v.9h2.3v-.8c0-.4.2-.6.5-.6s.5.2.5.6v1.5zm-4.5-1.4c0-.9-.2-1.5-.5-1.9s-.9-.6-1.7-.6-1.4.2-1.8.7l-.4-.5h-1.3v14.1h2.3v-3.6c.2.1.3.2.6.3.2.1.4.1.7.1.8 0 1.4-.2 1.7-.6s.5-1 .5-1.9v-6.1zm-2.3 6.2c0 .4-.2.6-.5.6s-.5-.2-.5-.6v-6.2c0-.4.2-.6.5-.6.2 0 .3.1.4.2s.1.2.1.4zm-7.9-1.3h-2.3v1.2c0 .8.2 1.4.6 1.8s1.1.7 2.2.7 1.8-.2 2.2-.7.6-1 .6-1.8v-.9c0-.5-.1-1-.2-1.3-.2-.3-.4-.6-.6-.9-.2-.2-.5-.4-.8-.6s-.5-.3-.8-.5c-.2-.2-.4-.4-.6-.6s-.2-.5-.2-.9v-.4c0-.4.2-.6.5-.6s.5.2.5.6v1h2.3v-1c0-.8-.2-1.4-.6-1.9-.4-.4-1.1-.7-2.2-.7-1 0-1.7.2-2.2.7-.4.4-.6 1.1-.6 1.8v.4c0 .5.1 1 .2 1.3.2.4.4.6.6.9.2.2.5.4.8.6s.5.3.8.5.4.4.6.6.2.5.2.9v.9c0 .2 0 .4-.1.5s-.2.1-.4.1-.3 0-.4-.1-.1-.2-.1-.5zm-5.8-3h2.2v-2.1h-2.2v-4.2h2.5v-2.2h-5v15h5v-2.2h-2.5zm-10.2 10c.3-.1.6-.3.9-.5.2-.2.4-.5.6-.9.2-.3.3-.8.4-1.3l2.1-11.6h-2.4l-.7 7.1-.7-7.1h-2.4l1.9 10.7-.1.8c-.1.3-.2.6-.3.7s-.3.2-.5.2-.4 0-.6-.1c-.2 0-.3-.1-.5-.1v1.9c.1 0 .3.1.5.1s.4.1.6.1c.5.2.9.1 1.2 0m-9.5-7.4c0-.4.1-.7.3-.8.2-.2.4-.4.8-.6v3c0 .2 0 .4-.1.5s-.2.2-.5.2c-.2 0-.3-.1-.4-.2s-.1-.3-.1-.4zm1.1-3.1c-.6.2-1.1.4-1.5.6s-.8.4-1 .7c-.3.2-.5.5-.6.8s-.2.6-.2 1v1.6c0 .9.2 1.5.5 1.9s.9.6 1.7.6c.5 0 .8-.1 1-.2s.5-.3.7-.6l.4.5h1.3v-8.4c0-.4 0-.7-.1-1s-.2-.6-.5-.8c-.2-.2-.5-.4-.9-.5s-.8-.2-1.3-.2c-1 0-1.7.2-2.1.7-.4.4-.6 1-.6 1.7v.9h2.3v-.8c0-.4.2-.6.5-.6s.5.2.5.6v1.5zm-6.5 3.1v1.6c0 .2-.1.4-.2.5s-.2.1-.3.1-.2 0-.3-.1-.2-.2-.2-.5v-6.2c0-.2.1-.4.2-.5s.2-.1.3-.1.2 0 .3.1.2.2.2.5v1.4h2.2v-1.4c0-.4 0-.7-.1-1s-.2-.6-.4-.8-.5-.4-.8-.5-.8-.2-1.3-.2-1 .1-1.4.2-.7.3-.9.5-.4.5-.5.8-.1.6-.1 1v6.2c0 .4 0 .7.1 1s.2.6.5.8c.2.2.5.4.9.5s.8.2 1.4.2 1-.1 1.4-.2.6-.3.8-.5.3-.5.4-.8.1-.7.1-1v-1.6zm-7-7.9h2.3v-2.4h-2.3zm0 11.8h2.3v-10.7h-2.3zm-4.6-13.4v2.7h-1.1v1.9h1.1v6.5c0 .4 0 .7.1 1.1.1.3.2.6.4.8s.5.4.8.5c.4.1.8.2 1.4.2.2 0 .3 0 .6-.1.2 0 .4-.1.5-.2v-1.9c-.2.1-.4.1-.5.1s-.3 0-.4 0c-.4 0-.6-.2-.6-.6v-6.5h1.5v-1.9h-1.5v-3.3zm-7.6 2.7v8.4c0 .9.2 1.5.5 1.9s.9.6 1.7.6c.9 0 1.5-.2 1.8-.7l.4.5h1.3v-10.7h-2.3v8.5c0 .4-.2.6-.5.6-.2 0-.3-.1-.4-.2s-.1-.2-.1-.4v-8.5zm-4.6-3.9-.5 2.9h1.4l1.3-2.9zm-.2 10.7c0-.4.1-.7.3-.8.2-.2.4-.4.8-.6v3c0 .2 0 .4-.1.5s-.2.2-.5.2c-.2 0-.3-.1-.4-.2s-.1-.3-.1-.4zm1.1-3.1c-.6.2-1.1.4-1.5.6s-.8.4-1 .7c-.3.2-.5.5-.6.8s-.2.6-.2 1v1.6c0 .9.2 1.5.5 1.9.4.4.9.6 1.7.6.5 0 .8-.1 1-.2s.5-.3.7-.6l.4.5h1.3v-8.4c0-.4 0-.7-.1-1s-.2-.6-.5-.8c-.2-.2-.5-.4-.9-.5s-.8-.2-1.3-.2c-1 0-1.7.2-2.1.7s-.6 1-.6 1.7v.9h2.3v-.8c0-.4.1-.6.5-.6.3 0 .5.2.5.6v1.5zm-4.5 7v-8.4c0-.9-.2-1.5-.5-1.9s-.9-.6-1.7-.6-1.4.2-1.8.7l-.4-.5h-1.3v10.7h2.3v-8.5c0-.4.2-.6.5-.6.2 0 .3.1.4.2s.1.2.1.4v8.5zm-8.5.1c.4-.1.6-.3.9-.5.2-.2.4-.5.5-.8s.1-.7.1-1v-6.1c0-.4 0-.7-.1-1s-.2-.6-.5-.8c-.2-.2-.5-.4-.9-.5s-.8-.2-1.4-.2c-.5 0-1 .1-1.4.2s-.7.3-.9.5-.4.5-.5.8-.1.6-.1 1v6c0 .4 0 .7.1 1s.2.6.5.8c.2.2.5.4.9.5s.8.2 1.4.2c.6.1 1 0 1.4-.1m-1.7-1.8c-.1-.1-.2-.2-.2-.5v-6.2c0-.2.1-.4.2-.5s.2-.1.4-.1c.1 0 .2 0 .3.1s.2.2.2.5v6.2c0 .2-.1.4-.2.5s-.2.1-.3.1c-.2 0-.3-.1-.4-.1m-3.5-9.3c-.6 0-1 .1-1.4.2s-.6.4-.9.7l-.4-.5h-1.3v10.7h2.3v-7.5c0-.5.1-.8.3-1s.6-.3 1.2-.2v-2.4zm-8.4 2.6c0-.2.1-.4.2-.5s.2-.1.3-.1.2 0 .4.1.2.2.2.5v1.8h-1v-1.8zm0 3.4h3.3v-3.3c0-.4 0-.7-.1-1s-.2-.6-.4-.8-.5-.4-.8-.5c-.4-.1-.8-.2-1.3-.2s-1 .1-1.4.2-.6.3-.9.5c-.2.2-.4.5-.5.8s-.1.7-.1 1v6c0 .4 0 .7.1 1s.2.6.5.8c.2.2.5.4.9.5s.8.2 1.4.2 1-.1 1.4-.2.6-.3.8-.5.3-.5.4-.8.1-.7.1-1v-1.5h-2.2v1.6c0 .2-.1.4-.2.5s-.2.1-.4.1c-.1 0-.2 0-.3-.1s-.2-.2-.2-.5v-2.8zm-6.9-2.2c.1-.9.1-1.8.2-2.7s.1-1.8.1-2.6c0 .8.1 1.7.1 2.6s.1 1.8.2 2.7l.2 2.2h-1zm-3.1 7.2h2.5l.2-2.9h1.5l.2 2.9h2.5l-1.8-15h-3.1zm-6.3-2.4v4.3h1.4l1-4.3zm-6.8.2c0 .9.2 1.5.5 1.9s.9.6 1.7.6c.9 0 1.5-.2 1.8-.7l.4.5h1.3v-15.3h-2.3v4.7c-.2-.1-.3-.2-.6-.3-.2-.1-.5-.1-.7-.1-.8 0-1.4.2-1.6.6-.3.4-.4 1-.4 1.9v6.2zm2.3-6.2c0-.4.2-.6.5-.6s.5.2.5.6v6.2c0 .4-.2.6-.5.6-.2 0-.3-.1-.4-.2s-.1-.2-.1-.4zm-7 4.5c0-.4.1-.7.3-.8s.4-.4.8-.6v3c0 .2 0 .4-.1.5s-.2.2-.5.2c-.2 0-.3-.1-.4-.2s-.1-.3-.1-.4zm1.1-3.1c-.6.2-1.1.4-1.5.6s-.8.4-1 .7c-.3.2-.5.5-.6.8s-.2.6-.2 1v1.6c0 .9.2 1.5.5 1.9s.9.6 1.7.6c.5 0 .8-.1 1-.2s.5-.3.7-.6l.4.5h1.3v-8.4c0-.4 0-.7-.1-1s-.2-.6-.5-.8c-.2-.2-.5-.4-.9-.5s-.8-.2-1.3-.2c-1 0-1.7.2-2.1.7s-.6 1-.6 1.7v.9h2.2v-.8c0-.4.1-.6.5-.6.3 0 .5.2.5.6zm-10.1 4.8c0 .9.2 1.5.5 1.9s.9.6 1.7.6c.9 0 1.5-.2 1.8-.7l.4.5h1.3v-15.3h-2.3v4.7c-.1-.1-.3-.2-.6-.3-.2-.1-.5-.1-.7-.1-.8 0-1.4.2-1.6.6-.3.4-.4 1-.4 1.9v6.2zm2.3-6.2c0-.4.2-.6.5-.6s.5.2.5.6v6.2c0 .4-.2.6-.5.6-.2 0-.3-.1-.4-.2s-.1-.2-.1-.4zm-5.9-3.4h2.3v-2.4h-2.3zm0 11.8h2.3v-10.7h-2.3zm-.9-11c-.6 0-1 .1-1.4.2s-.6.4-.9.7l-.4-.5h-1.3v10.7h2.3v-7.5c0-.5.1-.8.3-1s.6-.3 1.2-.2v-2.4zm-10.9.3v8.4c0 .9.2 1.5.5 1.9s.9.6 1.7.6c.9 0 1.5-.2 1.8-.7l.4.5h1.3v-10.7h-2.3v8.5c0 .4-.2.6-.5.6-.2 0-.3-.1-.4-.2s-.1-.2-.1-.4v-8.5zm-3.6 11c.1.1.2.3.2.6 0 .3-.1.5-.2.6s-.3.2-.6.2c-.2 0-.4-.1-.6-.2s-.2-.3-.2-.6c0-.3.1-.5.2-.6.2-.1.3-.2.6-.2.2 0 .4.1.6.2m-.2-9.2c.1.1.1.2.1.5v3.9c0 .2 0 .4-.1.5s-.2.1-.4.1-.3 0-.4-.1-.1-.3-.1-.5v-3.9c0-.2 0-.4.1-.5s.2-.1.4-.1.3 0 .4.1m1.8 5.9c.4-.4.6-1 .6-1.8v-3.6c0-.4-.1-.8-.2-1.1s-.3-.6-.6-.8c.1-.1.3-.2.6-.2h.5c.1 0 .2.1.4.1v-1.6c-.1 0-.2 0-.3-.1-.1 0-.2 0-.3 0-.8 0-1.3.4-1.6 1.3-.3-.1-.7-.1-1.1-.1-.5 0-1 .1-1.4.2s-.7.3-.9.5-.4.5-.5.8-.1.7-.1 1v3.6c0 .5.1.9.2 1.3s.4.6.8.9c-.4.2-.7.5-.7.9s.2.6.6.9c-.4.2-.7.5-.9.9-.2.3-.2.7-.2 1.2v.1c0 .3.1.7.2 1s.3.6.5.8.6.4.9.5c.4.1.9.2 1.4.2s1-.1 1.4-.2.7-.3.9-.5.4-.5.5-.8.2-.6.2-.9v-.1c0-.4 0-.7-.1-1s-.3-.5-.5-.8-.5-.4-.9-.5-.9-.2-1.5-.2c-.5 0-.7-.2-.7-.6s.2-.5.7-.5c1-.1 1.7-.3 2.1-.8m-9.4-5.4c0-.2.1-.4.2-.5s.2-.1.4-.1c.1 0 .2 0 .3.1s.2.2.2.5v1.8h-1v-1.8zm0 3.4h3.3v-3.3c0-.4 0-.7-.1-1s-.2-.6-.4-.8-.5-.4-.8-.5c-.4-.1-.8-.2-1.3-.2s-1 .1-1.4.2-.7.3-.9.5-.4.5-.5.8-.1.7-.1 1v6c0 .4 0 .7.1 1s.2.6.5.8c.2.2.5.4.9.5s.8.2 1.4.2 1-.1 1.4-.2.6-.3.8-.5.3-.5.4-.8.1-.7.1-1v-1.5h-2.2v1.6c0 .2-.1.4-.2.5s-.2.1-.3.1-.2 0-.4-.1c-.1-.1-.2-.2-.2-.5v-2.8zm-7.3.3h-2.4v2.2c0 .4.1.7.2 1.1s.3.6.5.9c.2.2.6.4.9.6.4.1.9.2 1.4.2.6 0 1-.1 1.4-.2s.7-.3 1-.6c.2-.2.4-.5.5-.9s.2-.7.2-1.1v-1.6c0-.9-.1-1.6-.3-2.1s-.4-1-.7-1.3-.6-.6-.9-.8-.6-.5-.9-.7-.5-.5-.7-.9c-.2-.3-.3-.8-.3-1.4v-1.2c0-.2 0-.4.1-.5s.3-.2.5-.2.4.1.5.2.1.3.1.5v2h2.4v-2c0-.4-.1-.7-.2-1.1-.1-.3-.3-.6-.5-.9-.2-.2-.6-.4-1-.6-.4-.1-.9-.2-1.4-.2-.6 0-1.1.1-1.4.2-.4.1-.7.3-.9.6-.2.2-.4.5-.5.9-.1.3-.2.7-.2 1.1v1.3c0 .8.1 1.4.3 1.9s.4.8.7 1.2c.3.3.6.6.9.8s.6.5.9.8.5.6.7 1 .3.9.3 1.6v1.5c0 .4-.2.7-.6.7s-.6-.2-.6-.7zm-9.3 2.3v4.3h1.4l1-4.3zm-4.5-1.5c0-.4.1-.7.3-.8s.4-.4.8-.6v3c0 .2 0 .4-.1.5s-.2.2-.5.2c-.2 0-.3-.1-.4-.2 0-.2-.1-.3-.1-.5zm1.1-3.1c-.6.2-1.1.4-1.5.6s-.8.4-1 .7c-.3.2-.5.5-.6.8s-.2.6-.2 1v1.6c0 .9.2 1.5.5 1.9.4.4.9.6 1.7.6.5 0 .8-.1 1-.2s.5-.3.7-.6l.4.5h1.3v-8.4c0-.4 0-.7-.1-1s-.2-.6-.5-.8c-.2-.2-.5-.4-.9-.5s-.8-.2-1.3-.2c-1 0-1.7.2-2.1.7s-.6 1-.6 1.7v.9h2.3v-.8c0-.4.1-.6.5-.6.3 0 .5.2.5.6v1.5zm-7.6 3.5h-2.3v1.2c0 .8.2 1.4.6 1.8s1.1.7 2.2.7 1.8-.2 2.2-.7c.4-.4.6-1 .6-1.8v-.9c0-.5-.1-1-.2-1.3-.2-.3-.4-.6-.6-.9-.2-.2-.5-.4-.8-.6s-.5-.3-.8-.5c-.2-.2-.4-.4-.6-.6s-.2-.5-.2-.9v-.4c0-.4.2-.6.5-.6s.5.2.5.6v1h2.3v-1c0-.8-.2-1.4-.6-1.9s-1.1-.7-2.2-.7c-1 0-1.7.2-2.2.7-.4.4-.6 1.1-.6 1.8v.4c0 .5.1 1 .2 1.3.2.4.4.6.6.9.2.2.5.4.8.6s.5.3.8.5c.2.2.4.4.6.6s.2.5.2.9v.9c0 .2 0 .4-.1.5s-.2.1-.4.1-.3 0-.4-.1-.1-.2-.1-.5zm-3.4 3.5v-8.4c0-.9-.2-1.5-.5-1.9s-.9-.6-1.7-.6-1.4.2-1.9.7l-.4-.5h-1.3v10.7h2.3v-8.5c0-.4.2-.6.5-.6.2 0 .3.1.4.2s.1.2.1.4v8.5zm-10.3-8.4c0-.2.1-.4.2-.5s.2-.1.3-.1.2 0 .4.1c.1.1.2.2.2.5v1.8h-1v-1.8zm0 3.4h3.2v-3.3c0-.4 0-.7-.1-1s-.2-.6-.4-.8-.5-.4-.8-.5c-.4-.1-.8-.2-1.3-.2s-1 .1-1.4.2-.6.3-.9.5c-.2.2-.4.5-.5.8s-.1.7-.1 1v6c0 .4 0 .7.1 1s.2.6.5.8c.2.2.5.4.9.5s.8.2 1.4.2 1-.1 1.4-.2.6-.3.8-.5.3-.5.4-.8.1-.7.1-1v-1.5h-2.2v1.6c0 .2-.1.4-.2.5s-.2.1-.4.1c-.1 0-.2 0-.3-.1s-.2-.2-.2-.5zm-5.4-10.2c-.4.1-.7.3-.9.5s-.4.5-.5.8-.1.7-.1 1.1v2.1h-1v1.9h1v8.8h2.3v-8.8h1.4v-1.9h-1.4v-2.1c0-.2 0-.4.1-.5s.3-.2.5-.2c.3 0 .7.1.9.2v-1.9c-.3-.1-.7-.2-1-.2-.4 0-.9.1-1.3.2m-6.5 6.8c0-.2.1-.4.2-.5s.2-.1.4-.1c.1 0 .2 0 .3.1s.2.2.2.5v1.8h-1v-1.8zm0 3.4h3.3v-3.3c0-.4 0-.7-.1-1s-.2-.6-.4-.8-.5-.4-.8-.5c-.4-.1-.8-.2-1.3-.2s-1 .1-1.4.2-.7.3-.9.5-.4.5-.5.8-.1.7-.1 1v6c0 .4 0 .7.1 1s.2.6.5.8c.2.2.5.4.9.5s.8.2 1.4.2 1-.1 1.4-.2.6-.3.8-.5.3-.5.4-.8.1-.7.1-1v-1.5h-2.3v1.6c0 .2-.1.4-.2.5s-.2.1-.3.1-.2 0-.4-.1c-.1-.1-.2-.2-.2-.5zm-7.5-7.8h.7c.3 0 .5.2.5.5v9.6c0 .3-.2.5-.5.5h-.7zm-2.4 12.8h3.4c.6 0 1-.1 1.4-.2s.6-.3.8-.5.3-.5.4-.8.1-.7.1-1.2v-9.6c0-.4 0-.8-.1-1.1s-.2-.6-.4-.8-.5-.4-.9-.5-.8-.2-1.4-.2h-3.3z" fill="#878787"/><g fill="#007297"><path d="m151.3 12h8.7l21.3 60.2h14.5l-26.7-72.1h-12z"/><path clip-path="url(#b)" d="m135.9 36.1c0 14.3-6.5 23.8-23.2 23.8h-2.2v-47.6h2.2c15.4 0 23.2 8.1 23.2 23.8m14 .1c0-20.6-13.5-36.2-33.7-36.2h-19.4v72.2h19.4c19.8 0 33.7-15.7 33.7-36"/><path d="m48.6 0v72.3h36.1v-11.9h-22.5v-24.1h22.5v-12.3h-22.5v-12h22.5v-12z"/><path d="m205.3 0v72.3h36.1v-11.9h-22.5v-24.1h22.5v-12.3h-22.5v-12h22.5v-12z"/><path d="m.4.1v12h12v60.2h12.1v-60.1h12v-12.1z"/></g><path clip-path="url(#c)" d="m161.2 39.4c.1.5.3.8.8.9 1.6.6 3 .2 4.9 0 1.4-.1 2.1.4 3.5.4 2.1-.1 3.6-1 5.7-.9-2.4 2.1-4.7 2.4-6.8 1.7-.2.2-.2.4-.4.6.2.2.2.4.5.5.4.1.7.2 1.1.2.9-.1 1.4-.2 2.1.1.6.2 1.2-.2 1.8 0 1.1.4 2.2-.2 3.6-.7 2.4-.7 3.8-1.1 6.1-1.2 1.5-.1 2.5-.7 4.2-1.5 1.2-.7 2.4-.6 3.3-1.8-.2-.2-.4-.2-.7-.4-.2.2-.5.2-.7.3.2-.4.7-.5 1.1-.8.8-.6 1.2-1.3 2.2-1.7.4-.2.7-.2.9-.5.1-.2.1-.3.1-.5-1.8 0-3.1.7-5 1.2-5.3 1.3-8.7 3-13.6 3-1.1 0-1.9.5-3 .5-1.8-.1-3 0-5 .5-1.2.3-1.7-.4-3-.1-.4.1-.7.5-1.1.5-1.1-.1-1.5-.5-2.6-.3" fill="#f7323f"/><path clip-path="url(#c)" d="m156 43.2c-.7-.2-1.1-.4-1.7-.6-.1.2-.2.3-.4.5-.5.7-.2 1.3.4 1.5.4.1.7-.1 1.1.1s.7.2 1.1.4c.5.2.9-.2 1.4 0s.8.3 1.4.5c-1.2.2-2 .5-3 .2-.7-.2-1-.4-1.6-.6-.9.5-1.5.4-2.4.6l-.2.2c.4.4.7.6 1.2.8-1.4.4-2.3.9-3.7 1.1l-.2.4c.8.3 1.2.4 2.1.7.3.1.6-.1.9.1.2.1.3.3.5.4.6.2.9.3 1.5.5.5.2 1-.4 1.6-.4 1.2-.2 1.9-.2 3.1-.4 1.7-.2 2.3.8 4.1.3-2.3.6-3.9 1.4-5.6.8l-.3.2c.3.7.4 1.1 1.1 1.4 1.5.5 3.1-.9 4.6-.4.4.2.7.2 1.1.4 1.2.4 2.6-.8 4-.7 2 .2 3.4.1 5.7-.5 1.3-.3 2.1-.2 3.4-.8 1.2-.5 1.8-.3 2.9-.6 1.2-.3 2.1-1.2 3.4-1.5 2.7-.8 4.3-1.1 6.8-2.8-.5-.4-1.5-.5-.9-1.2.2-.2.5-.3.7-.5-.7-.2-.1-1.5.5-2.4-.1-.1-.1-.2-.2-.3-.9-.4-2 .7-3.2.9-2.4.5-3.9.8-6.4 1.7-3.6 1.2-5.8 1.5-8.8 1.1-1.7-.2-2.8.2-4.6.4-1.6.1-2.3-.2-3.7-.5-3.1-1-5.2-.2-7.7-1" fill="#ffd700"/><path clip-path="url(#c)" d="m158.3 52.6c-.1.5.1.8.5.9 1.9.7 3.7-.2 5.9 0 3.3.4 4.9 1.6 8.7.6-.2.2-.3.2-.4.4-.2.3-.3.5-.5.7.3.1.4.1.7.2.4.1.8-.1 1.2-.2 1.3-.5 2-.4 3.4-.8 1.8-.6 2.8.1 4.6-.9 3.9-2.2 5.9-1.7 9.7-2.7-.5-.2-.9-.2-.9-.8 2.1-1.1 3.5-2.1 4.9-4.2.4-.6.4-1.1.5-1.7-3.1 1-4.8 1.7-7.8 3.4-1.1.7-1.8.4-2.9.9-2.1 1.1-3.4 1.8-5.4 2.3-5.8 1.1-9 1.7-14.5 2.3-1.5.1-2-.7-3.3-.7-1.8 0-2.8.4-4.4.3" fill="#f7323f"/></svg>